HIERARCHY
ROOT Hips
{
	OFFSET 0.000000 0.000000 0.000000
	CHANNELS 6 Xposition Yposition Zposition Xrotation Yrotation Zrotation
	JOINT LeftUpLeg_virtual
	{
		OFFSET 0.000000 0.000000 0.000000
		CHANNELS 3 Xrotation Yrotation Zrotation
		JOINT LeftUpLeg
		{
			OFFSET 11.394100 -6.187798 -0.413800
			CHANNELS 3 Xrotation Yrotation Zrotation
			JOINT LeftLeg
			{
				OFFSET 0.430247 -32.302673 3.732800
				CHANNELS 3 Xrotation Yrotation Zrotation
				JOINT LeftFoot
				{
					OFFSET -0.430247 -48.264931 -6.423300
					CHANNELS 3 Xrotation Yrotation Zrotation
					JOINT LeftToeBase
					{
						OFFSET 4.230900 -16.068199 23.438400
						CHANNELS 3 Xrotation Yrotation Zrotation
						JOINT LeftToe_End
						{
							OFFSET 4.510700 0.695400 19.974600
							CHANNELS 3 Xrotation Yrotation Zrotation
							End Site
							{
								OFFSET 0 0 0
							}
						}
					}
				}
			}
		}
	}
	JOINT RightUpLeg_virtual
	{
		OFFSET 0.000000 0.000000 0.000000
		CHANNELS 3 Xrotation Yrotation Zrotation
		JOINT RightUpLeg
		{
			OFFSET -11.333700 -6.187798 -0.413800
			CHANNELS 3 Xrotation Yrotation Zrotation
			JOINT RightLeg
			{
				OFFSET -0.430392 -32.302628 3.733000
				CHANNELS 3 Xrotation Yrotation Zrotation
				JOINT RightFoot
				{
					OFFSET 0.430392 -48.264973 -6.423500
					CHANNELS 3 Xrotation Yrotation Zrotation
					JOINT RightToeBase
					{
						OFFSET -4.230900 -16.068199 23.438400
						CHANNELS 3 Xrotation Yrotation Zrotation
						JOINT RightToe_End
						{
							OFFSET -4.510700 0.695400 19.974600
							CHANNELS 3 Xrotation Yrotation Zrotation
							End Site
							{
								OFFSET 0 0 0
							}
						}
					}
				}
			}
		}
	}
	JOINT Spine_virtual
	{
		OFFSET 0.000000 0.000000 0.000000
		CHANNELS 3 Xrotation Yrotation Zrotation
		JOINT Spine
		{
			OFFSET -0.002400 12.777504 0.315300
			CHANNELS 3 Xrotation Yrotation Zrotation
			JOINT Spine1
			{
				OFFSET -0.002067 5.816869 0.032633
				CHANNELS 3 Xrotation Yrotation Zrotation
				JOINT Spine1_split
				{
					OFFSET -0.002067 5.816869 0.032633
					CHANNELS 3 Xrotation Yrotation Zrotation
					JOINT Spine2
					{
						OFFSET -0.002067 5.816869 0.032633
						CHANNELS 3 Xrotation Yrotation Zrotation
						JOINT Neck_virtual
						{
							OFFSET 0.000000 0.000000 0.000000
							CHANNELS 3 Xrotation Yrotation Zrotation
							JOINT Neck
							{
								OFFSET -0.003700 21.199493 -0.826900
								CHANNELS 3 Xrotation Yrotation Zrotation
								JOINT Head
								{
									OFFSET 0.000000 20.442200 4.834800
									CHANNELS 3 Xrotation Yrotation Zrotation
									JOINT HeadTop_End
									{
										OFFSET 0.000000 34.668396 4.968400
										CHANNELS 3 Xrotation Yrotation Zrotation
										End Site
										{
											OFFSET 0 0 0
										}
									}
								}
							}
						}
						JOINT LeftShoulder_virtual
						{
							OFFSET 0.000000 0.000000 0.000000
							CHANNELS 3 Xrotation Yrotation Zrotation
							JOINT LeftShoulder
							{
								OFFSET 3.288150 8.794197 -1.372250
								CHANNELS 3 Xrotation Yrotation Zrotation
								JOINT LeftShoulder_split
								{
									OFFSET 3.288150 8.794197 -1.372250
									CHANNELS 3 Xrotation Yrotation Zrotation
									JOINT LeftArm
									{
										OFFSET 11.953299 -2.279007 -0.146200
										CHANNELS 3 Xrotation Yrotation Zrotation
										JOINT LeftForeArm
										{
											OFFSET 18.448900 0.000000 0.000000
											CHANNELS 3 Xrotation Yrotation Zrotation
											JOINT LeftHand
											{
												OFFSET 29.527798 0.000000 0.000000
												CHANNELS 3 Xrotation Yrotation Zrotation
												End Site
												{
													OFFSET 0 0 0
												}
											}
										}
									}
								}
							}
						}
						JOINT RightShoulder_virtual
						{
							OFFSET 0.000000 0.000000 0.000000
							CHANNELS 3 Xrotation Yrotation Zrotation
							JOINT RightShoulder
							{
								OFFSET -3.249400 8.794197 -1.372250
								CHANNELS 3 Xrotation Yrotation Zrotation
								JOINT RightShoulder_split
								{
									OFFSET -3.249400 8.794197 -1.372250
									CHANNELS 3 Xrotation Yrotation Zrotation
									JOINT RightArm
									{
										OFFSET -11.953299 -2.279007 -0.146200
										CHANNELS 3 Xrotation Yrotation Zrotation
										JOINT RightForeArm
										{
											OFFSET -18.448900 0.000000 0.000000
											CHANNELS 3 Xrotation Yrotation Zrotation
											JOINT RightHand
											{
												OFFSET -29.527802 0.000000 0.000000
												CHANNELS 3 Xrotation Yrotation Zrotation
												End Site
												{
													OFFSET 0 0 0
												}
											}
										}
									}
								}
							}
						}
					}
				}
			}
		}
	}
}
MOTION
Frames: 9
Frame Time: 0.03333333
-5.851235 92.943016 -2.502441 0.000000 0.000000 0.000000 2.424615 30.130874 0.947502 -53.693432 -16.855314 -3.195799 36.267389 16.988557 -5.009102 16.959341 -2.592357 -5.005141 1.096305 -2.107110 -0.238623 0.000000 0.000000 0.000000 3.029339 29.082163 0.756315 5.434810 -23.606472 -2.705679 20.503893 -9.754253 0.856617 -23.881449 -12.664284 0.878471 -3.126368 0.047613 -0.604754 0.000000 0.000000 0.000000 3.270157 29.149243 -0.133955 3.858830 4.335371 -0.957250 0.626896 3.318617 0.448056 0.385703 0.713146 0.048912 0.000000 0.000000 0.000000 1.547100 2.866487 0.889002 -3.381616 11.980253 -7.175693 -6.085992 9.358884 9.563351 0.000000 0.000000 0.000000 0.256091 3.156884 0.935464 0.105540 -1.692303 -3.460224 2.781578 -1.382326 -0.067105 -74.263240 -0.712068 -25.445496 1.253032 -66.086103 3.435770 0.000000 0.000000 0.000000 0.970043 3.048734 0.920432 4.295705 12.367155 8.109543 -5.241451 -0.068991 0.325320 14.528398 -6.349015 67.524876 17.127833 40.977617 -6.993498 0.000000 0.000000 0.000000 
-5.754365 93.432419 -2.585392 0.000000 0.000000 0.000000 2.828488 27.302568 0.711892 -51.967139 -16.446457 -1.411005 36.242486 17.483145 -5.405641 15.720449 -2.204572 -5.139658 1.419886 -2.141506 -0.481133 0.000000 0.000000 0.000000 3.548485 26.327372 0.541346 3.725297 -22.254850 -3.154284 21.084652 -9.509340 1.040715 -23.110929 -12.392847 0.584260 -3.216073 0.063491 -0.818842 0.000000 0.000000 0.000000 3.702289 26.463583 -0.344481 3.882369 4.039892 -1.113377 0.760257 3.186096 0.448094 0.364128 0.821498 -0.017338 0.000000 0.000000 0.000000 1.641788 2.723450 0.870051 -4.166033 8.636132 -6.564027 -4.425616 6.125959 9.968385 0.000000 0.000000 0.000000 0.312695 3.013374 0.909395 0.115860 -2.243004 -3.556526 2.685798 -1.234852 0.030241 -74.658592 -0.266954 -26.583537 1.875379 -68.381129 3.687096 0.000000 0.000000 0.000000 1.092632 2.897197 0.887090 4.274263 12.168274 7.894560 -5.273200 0.066055 0.288054 14.010239 -6.167388 67.571403 17.565201 42.290253 -7.359857 0.000000 0.000000 0.000000 
-5.660280 93.948746 -2.649956 0.000000 0.000000 0.000000 3.306460 24.257461 0.450249 -50.142656 -16.189119 0.435098 36.149333 18.145960 -5.774000 14.373735 -1.637874 -5.383127 1.796419 -2.140679 -0.834518 0.000000 0.000000 0.000000 4.120002 23.327746 0.308837 1.862656 -20.792178 -3.575293 21.636863 -9.125420 1.184324 -22.216391 -12.056604 0.425331 -3.379241 0.063778 -0.989988 0.000000 0.000000 0.000000 4.199349 23.501194 -0.552259 3.866389 3.745053 -1.251372 0.919735 3.040789 0.445708 0.366457 1.004834 -0.060456 0.000000 0.000000 0.000000 1.751660 2.571729 0.854233 -5.233722 5.268782 -6.069274 -2.771454 2.987607 10.201793 0.000000 0.000000 0.000000 0.384353 2.878912 0.885161 0.138845 -2.870152 -3.538311 2.576074 -1.222386 0.081295 -74.911507 0.081981 -27.983206 2.767718 -70.813940 4.195828 0.000000 0.000000 0.000000 1.246323 2.747363 0.846991 4.227645 11.882964 7.647233 -5.239834 0.212000 0.265826 13.528363 -5.864514 67.575002 18.064939 43.693601 -7.778499 0.000000 0.000000 0.000000 
-5.569777 94.486900 -2.697338 0.000000 0.000000 0.000000 3.830525 20.946636 0.167912 -48.217857 -16.025079 2.348438 36.093551 18.950293 -6.112131 12.943856 -0.886789 -5.763839 2.087583 -2.113024 -1.250550 0.000000 0.000000 0.000000 4.701710 20.033626 0.068242 -0.151314 -19.231724 -3.956792 22.139780 -8.600998 1.280107 -21.189648 -11.652246 0.394341 -3.549790 0.045336 -1.084504 0.000000 0.000000 0.000000 4.730321 20.202378 -0.744700 3.817188 3.450783 -1.356636 1.092156 2.876680 0.448033 0.381537 1.261230 -0.054725 0.000000 0.000000 0.000000 1.866490 2.409284 0.848039 -6.581449 1.826310 -5.618300 -1.079234 -0.157975 10.299294 0.000000 0.000000 0.000000 0.468553 2.750762 0.867674 0.179329 -3.547209 -3.410372 2.460766 -1.363143 0.109034 -74.995580 0.221741 -29.654168 3.968114 -73.007120 5.007022 0.000000 0.000000 0.000000 1.430083 2.599909 0.805573 4.161485 11.551370 7.386509 -5.124636 0.404172 0.220713 13.123409 -5.413765 67.464620 18.596489 45.095149 -8.201399 0.000000 0.000000 0.000000 
-5.474770 95.019386 -2.735786 0.000000 0.000000 0.000000 4.354567 17.294654 -0.111036 -46.209457 -15.840542 4.327657 36.194767 19.810759 -6.422678 11.417954 0.011799 -6.285336 2.244054 -2.070893 -1.660538 0.000000 0.000000 0.000000 5.259707 16.399129 -0.167086 -2.334635 -17.591921 -4.314543 22.596730 -7.945101 1.330742 -20.041127 -11.165440 0.440270 -3.627437 0.015646 -1.082614 0.000000 0.000000 0.000000 5.246013 16.550365 -0.915166 3.757685 3.156201 -1.420524 1.263308 2.695035 0.462889 0.408487 1.507081 -0.021502 0.000000 0.000000 0.000000 1.969745 2.237496 0.856152 -8.150011 -1.733926 -5.114837 0.661062 -3.412811 10.314628 0.000000 0.000000 0.000000 0.568259 2.615149 0.856865 0.238854 -4.251042 -3.185255 2.299813 -1.594594 0.111796 -74.950753 0.094653 -31.480485 5.313829 -74.494974 5.971736 0.000000 0.000000 0.000000 1.632876 2.452630 0.774954 4.078817 11.232086 7.147510 -4.932109 0.649776 0.101143 12.792093 -4.825965 67.173674 19.083359 46.314020 -8.546256 0.000000 0.000000 0.000000 
-5.373899 95.517822 -2.795513 0.000000 0.000000 0.000000 4.834286 13.250453 -0.359087 -44.103645 -15.493558 6.346247 36.494162 20.665571 -6.701148 9.748038 1.004859 -6.917362 2.282971 -2.028219 -2.004513 0.000000 0.000000 0.000000 5.764286 12.395361 -0.370769 -4.709466 -15.878223 -4.662642 23.062296 -7.165922 1.337962 -18.779247 -10.583195 0.522262 -3.552466 -0.015049 -0.998529 0.000000 0.000000 0.000000 5.721025 12.493860 -1.054588 3.713060 2.855622 -1.443469 1.416109 2.494565 0.493017 0.448604 1.724656 -0.010986 0.000000 0.000000 0.000000 2.046628 2.054735 0.885764 -9.842548 -5.441734 -4.487938 2.445693 -6.831366 10.287753 0.000000 0.000000 0.000000 0.667741 2.462869 0.851870 0.312881 -4.972518 -2.918769 2.087824 -1.830902 0.164845 -74.838922 -0.254099 -33.271562 6.455055 -74.990921 6.758667 0.000000 0.000000 0.000000 1.834505 2.303176 0.764958 3.987786 10.967972 6.955539 -4.723293 0.947003 -0.068328 12.498431 -4.177307 66.627778 19.422223 47.169082 -8.720885 0.000000 0.000000 0.000000 
-5.247015 95.948494 -2.854893 0.000000 0.000000 0.000000 5.229171 8.804979 -0.541676 -41.880346 -14.810980 8.385222 36.931615 21.422185 -6.927466 7.879312 2.028208 -7.628923 2.244827 -1.998223 -2.227663 0.000000 0.000000 0.000000 6.186782 8.057446 -0.514650 -7.320506 -14.076418 -5.023730 23.664375 -6.243753 1.308804 -17.392636 -9.890543 0.633935 -3.345369 -0.034508 -0.876157 0.000000 0.000000 0.000000 6.126550 8.040585 -1.152008 3.707793 2.543322 -1.423601 1.527842 2.279703 0.536355 0.487397 1.872081 -0.040737 0.000000 0.000000 0.000000 2.080926 1.862353 0.932294 -11.515261 -9.292075 -3.713351 4.237673 -10.402348 10.252907 0.000000 0.000000 0.000000 0.758225 2.290082 0.850080 0.394330 -5.679390 -2.666842 1.768504 -1.984818 0.259304 -74.686329 -0.754041 -34.829546 7.079030 -74.591963 7.062524 0.000000 0.000000 0.000000 2.011876 2.153488 0.775998 3.892451 10.781174 6.814882 -4.532802 1.262573 -0.281180 12.165831 -3.570642 65.837129 19.529951 47.579695 -8.679354 0.000000 0.000000 0.000000 
-5.093728 96.288666 -2.938171 0.000000 0.000000 0.000000 5.538898 3.995971 -0.634833 -39.519399 -13.654478 10.406100 37.396696 22.042641 -7.091219 5.780542 3.015930 -8.399912 2.172535 -1.991356 -2.299561 0.000000 0.000000 0.000000 6.529865 3.395783 -0.572881 -10.192445 -12.191288 -5.390849 24.477298 -5.164845 1.233323 -15.827732 -9.075618 0.818429 -3.091806 -0.034309 -0.771338 0.000000 0.000000 0.000000 6.446573 3.202024 -1.190294 3.754828 2.215548 -1.361545 1.588025 2.054854 0.584539 0.503697 1.959837 -0.089705 0.000000 0.000000 0.000000 2.079014 1.662058 0.988358 -13.040429 -13.230447 -2.807651 5.969846 -14.088640 10.205402 0.000000 0.000000 0.000000 0.825018 2.098359 0.846458 0.472086 -6.330382 -2.482077 1.382603 -2.106147 0.421759 -74.530819 -1.299253 -36.032547 7.248687 -73.706170 6.950082 0.000000 0.000000 0.000000 2.149438 1.999126 0.800413 3.807012 10.651461 6.705541 -4.373699 1.573775 -0.521577 11.732137 -3.118568 64.865589 19.402447 47.586010 -8.441449 0.000000 0.000000 0.000000 
-4.911172 96.526169 -3.000191 0.000000 0.000000 0.000000 5.791935 -1.094387 -0.631105 -37.047154 -11.879718 12.384298 37.789155 22.516506 -7.209734 3.539000 3.902802 -9.221482 2.021414 -2.010250 -2.209326 0.000000 0.000000 0.000000 6.820663 -1.570265 -0.523103 -13.344386 -10.221202 -5.730656 25.542385 -3.923790 1.100869 -14.092651 -8.127849 1.086899 -2.826252 -0.009118 -0.719638 0.000000 0.000000 0.000000 6.695765 -1.945034 -1.155092 3.848930 1.866190 -1.250396 1.593533 1.817652 0.628988 0.548393 2.074622 -0.112978 0.000000 0.000000 0.000000 2.043599 1.446547 1.043350 -14.311992 -17.165362 -1.835701 7.580321 -17.762687 10.136702 0.000000 0.000000 0.000000 0.859530 1.887841 0.838321 0.534271 -6.899808 -2.439682 0.898271 -2.234688 0.628556 -74.296161 -1.812447 -36.861336 7.224455 -72.851289 6.663986 0.000000 0.000000 0.000000 2.235265 1.831516 0.825110 3.745090 10.531080 6.582915 -4.214088 1.890511 -0.777410 11.122370 -2.867431 63.844217 19.089691 47.334895 -8.085557 0.000000 0.000000 0.000000 
